<mxfile host="app.diagrams.net" modified="2020-08-25T05:38:35.348Z" agent="5.0 (X11; Linux x86_64) AppleWebKit/537.36 (KHTML, like Gecko) Chrome/84.0.4147.125 Safari/537.36" etag="OuyHUNUEA3XSWKbjz5SL" version="13.6.5" type="github">
  <diagram name="Page-1" id="03018318-947c-dd8e-b7a3-06fadd420f32">
    <mxGraphModel dx="1037" dy="544" grid="1" gridSize="10" guides="1" tooltips="1" connect="1" arrows="1" fold="1" page="1" pageScale="1" pageWidth="1100" pageHeight="850" background="#ffffff" math="0" shadow="0">
      <root>
        <mxCell id="0" />
        <mxCell id="1" parent="0" />
        <mxCell id="UwstPf0z_AmdFwcMKprc-2" value="Oaks FOB Generator" style="strokeWidth=1;shadow=0;dashed=0;align=center;html=1;shape=mxgraph.mockup.containers.window;align=left;verticalAlign=top;spacingLeft=8;strokeColor2=#008cff;strokeColor3=#c4c4c4;fontColor=#666666;mainText=;fontSize=17;labelBackgroundColor=none;" vertex="1" parent="1">
          <mxGeometry x="180" y="100" width="550" height="380" as="geometry" />
        </mxCell>
        <mxCell id="UwstPf0z_AmdFwcMKprc-1" value="Connect" style="strokeWidth=1;shadow=0;dashed=0;align=center;html=1;shape=mxgraph.mockup.buttons.button;strokeColor=#666666;fontColor=#ffffff;mainText=;buttonStyle=round;fontSize=17;fontStyle=1;fillColor=#008cff;whiteSpace=wrap;" vertex="1" parent="1">
          <mxGeometry x="200" y="150" width="150" height="50" as="geometry" />
        </mxCell>
        <mxCell id="UwstPf0z_AmdFwcMKprc-5" value="Upload" style="strokeWidth=1;shadow=0;dashed=0;align=center;html=1;shape=mxgraph.mockup.buttons.button;strokeColor=#666666;fontColor=#ffffff;mainText=;buttonStyle=round;fontSize=17;fontStyle=1;fillColor=#008cff;whiteSpace=wrap;" vertex="1" parent="1">
          <mxGeometry x="380" y="150" width="150" height="50" as="geometry" />
        </mxCell>
        <mxCell id="UwstPf0z_AmdFwcMKprc-6" value="Scaned: 11223344" style="text;strokeColor=none;fillColor=none;html=1;fontSize=24;fontStyle=1;verticalAlign=middle;align=left;" vertex="1" parent="1">
          <mxGeometry x="200" y="240" width="340" height="40" as="geometry" />
        </mxCell>
        <mxCell id="UwstPf0z_AmdFwcMKprc-7" value="Pending&amp;nbsp; &amp;nbsp; &amp;nbsp; &amp;nbsp; &amp;nbsp; &amp;nbsp; &amp;nbsp; &amp;nbsp; &amp;nbsp; &amp;nbsp;Uploaded" style="text;strokeColor=none;fillColor=none;html=1;fontSize=24;fontStyle=1;verticalAlign=middle;align=left;" vertex="1" parent="1">
          <mxGeometry x="200" y="280" width="450" height="40" as="geometry" />
        </mxCell>
        <mxCell id="UwstPf0z_AmdFwcMKprc-8" value="100&amp;nbsp; &amp;nbsp; &amp;nbsp; &amp;nbsp; &amp;nbsp; &amp;nbsp; &amp;nbsp; &amp;nbsp; -&amp;gt;&amp;nbsp; &amp;nbsp; &amp;nbsp; &amp;nbsp; &amp;nbsp;1" style="text;strokeColor=none;fillColor=none;html=1;fontSize=24;fontStyle=1;verticalAlign=middle;align=left;" vertex="1" parent="1">
          <mxGeometry x="200" y="330" width="450" height="40" as="geometry" />
        </mxCell>
        <UserObject label="View Failed uploads" link="https://www.draw.io" id="UwstPf0z_AmdFwcMKprc-9">
          <mxCell style="text;html=1;strokeColor=none;fillColor=none;whiteSpace=wrap;align=center;verticalAlign=middle;fontColor=#0000EE;fontStyle=4;" vertex="1" parent="1">
            <mxGeometry x="200" y="385" width="330" height="40" as="geometry" />
          </mxCell>
        </UserObject>
        <mxCell id="UwstPf0z_AmdFwcMKprc-10" value="" style="shape=flexArrow;endArrow=classic;html=1;" edge="1" parent="1" source="UwstPf0z_AmdFwcMKprc-9" target="UwstPf0z_AmdFwcMKprc-11">
          <mxGeometry width="50" height="50" relative="1" as="geometry">
            <mxPoint x="430" y="570" as="sourcePoint" />
            <mxPoint x="480" y="580" as="targetPoint" />
          </mxGeometry>
        </mxCell>
        <mxCell id="UwstPf0z_AmdFwcMKprc-11" value="&lt;table border=&quot;1&quot; width=&quot;100%&quot; style=&quot;width: 100% ; height: 100% ; border-collapse: collapse&quot;&gt;&lt;tbody&gt;&lt;tr&gt;&lt;td align=&quot;center&quot;&gt;ID&lt;/td&gt;&lt;td align=&quot;center&quot;&gt;Description&lt;/td&gt;&lt;td align=&quot;center&quot;&gt;&lt;br&gt;&lt;/td&gt;&lt;/tr&gt;&lt;tr&gt;&lt;td align=&quot;center&quot;&gt;11223344&lt;/td&gt;&lt;td align=&quot;center&quot;&gt;Duplicate ID&lt;/td&gt;&lt;td align=&quot;center&quot;&gt;remove FOB&lt;/td&gt;&lt;/tr&gt;&lt;tr&gt;&lt;td align=&quot;center&quot;&gt;AABBCCDD&lt;/td&gt;&lt;td align=&quot;center&quot;&gt;Network error&lt;/td&gt;&lt;td align=&quot;center&quot;&gt;remove FOB&lt;/td&gt;&lt;/tr&gt;&lt;/tbody&gt;&lt;/table&gt;" style="text;html=1;strokeColor=none;fillColor=none;overflow=fill;" vertex="1" parent="1">
          <mxGeometry x="390" y="510" width="320" height="140" as="geometry" />
        </mxCell>
      </root>
    </mxGraphModel>
  </diagram>
</mxfile>
